<?xml version="1.0" encoding="UTF-8" standalone="no"?>
<!-- Created with Inkscape (http://www.inkscape.org/) -->

<svg
   xmlns:dc="http://purl.org/dc/elements/1.1/"
   xmlns:cc="http://creativecommons.org/ns#"
   xmlns:rdf="http://www.w3.org/1999/02/22-rdf-syntax-ns#"
   xmlns:svg="http://www.w3.org/2000/svg"
   xmlns="http://www.w3.org/2000/svg"
   xmlns:sodipodi="http://sodipodi.sourceforge.net/DTD/sodipodi-0.dtd"
   xmlns:inkscape="http://www.inkscape.org/namespaces/inkscape"
   width="100"
   height="100"
   viewBox="0 0 26.458333 26.458334"
   version="1.1"
   id="svg5203"
   inkscape:version="0.92.2 5c3e80d, 2017-08-06"
   sodipodi:docname="icon.svg"
   inkscape:export-filename="/home/jak/code/mecono/brand/icon.png"
   inkscape:export-xdpi="480"
   inkscape:export-ydpi="480">
  <defs
     id="defs5197" />
  <sodipodi:namedview
     id="base"
     pagecolor="#ffffff"
     bordercolor="#666666"
     borderopacity="1.0"
     inkscape:pageopacity="1"
     inkscape:pageshadow="2"
     inkscape:zoom="2.61"
     inkscape:cx="-3.2497655"
     inkscape:cy="17.081853"
     inkscape:document-units="mm"
     inkscape:current-layer="layer1"
     showgrid="false"
     units="px"
     inkscape:snap-global="false"
     inkscape:window-width="1662"
     inkscape:window-height="1016"
     inkscape:window-x="121"
     inkscape:window-y="93"
     inkscape:window-maximized="0" />
  <metadata
     id="metadata5200">
    <rdf:RDF>
      <cc:Work
         rdf:about="">
        <dc:format>image/svg+xml</dc:format>
        <dc:type
           rdf:resource="http://purl.org/dc/dcmitype/StillImage" />
        <dc:title></dc:title>
      </cc:Work>
    </rdf:RDF>
  </metadata>
  <g
     inkscape:label="Layer 1"
     inkscape:groupmode="layer"
     id="layer1"
     transform="translate(0,-270.54165)">
    <path
       style="fill:none;stroke:#3f4c6b;stroke-width:0.73111171;stroke-linecap:butt;stroke-linejoin:miter;stroke-miterlimit:4;stroke-dasharray:none;stroke-opacity:1"
       d="m 13.247437,280.71807 -5.3004784,-0.006"
       id="path5133"
       inkscape:connector-curvature="0"
       sodipodi:nodetypes="cc" />
    <circle
       style="opacity:0.98999999;fill:#ffffff;fill-opacity:1;stroke:#3f4c6b;stroke-width:0.73111171;stroke-linecap:butt;stroke-linejoin:miter;stroke-miterlimit:4;stroke-dasharray:none;stroke-opacity:1;paint-order:normal"
       id="circle5121"
       cx="7.9469533"
       cy="280.71384"
       r="1.6526816" />
    <path
       sodipodi:nodetypes="cc"
       inkscape:connector-curvature="0"
       id="path5158"
       d="m 13.247454,280.71807 -6.5e-5,-5.31933"
       style="fill:none;stroke:#3f4c6b;stroke-width:0.73111171;stroke-linecap:butt;stroke-linejoin:miter;stroke-miterlimit:4;stroke-dasharray:none;stroke-opacity:1" />
    <path
       style="fill:none;stroke:#3f4c6b;stroke-width:0.73111171;stroke-linecap:butt;stroke-linejoin:miter;stroke-miterlimit:4;stroke-dasharray:none;stroke-opacity:1"
       d="M 18.547639,280.71807 H 13.247437"
       id="path5172"
       inkscape:connector-curvature="0"
       sodipodi:nodetypes="cc" />
    <circle
       r="1.6526816"
       cy="280.71805"
       cx="13.247452"
       id="circle5152"
       style="opacity:0.98999999;fill:#ffffff;fill-opacity:1;stroke:#3f4c6b;stroke-width:0.73111171;stroke-linecap:butt;stroke-linejoin:miter;stroke-miterlimit:4;stroke-dasharray:none;stroke-opacity:1;paint-order:normal" />
    <circle
       r="1.6526816"
       cy="275.39874"
       cx="13.247387"
       id="circle5156"
       style="opacity:0.98999999;fill:#ffffff;fill-opacity:1;stroke:#3f4c6b;stroke-width:0.73111171;stroke-linecap:butt;stroke-linejoin:miter;stroke-miterlimit:4;stroke-dasharray:none;stroke-opacity:1;paint-order:normal" />
    <circle
       style="opacity:0.98999999;fill:#ffffff;fill-opacity:1;stroke:#3f4c6b;stroke-width:0.73111171;stroke-linecap:butt;stroke-linejoin:miter;stroke-miterlimit:4;stroke-dasharray:none;stroke-opacity:1;paint-order:normal"
       id="circle5170"
       cx="18.547665"
       cy="280.71805"
       r="1.6526816" />
    <path
       d="m 17.191582,284.09276 q 1.744828,0 2.55908,1.08567 0.83364,1.06627 0.83364,2.8305 v 5.48651 q 0,0.25202 -0.174484,0.4265 -0.155101,0.15517 -0.407125,0.15517 -0.252031,0 -0.426515,-0.15517 -0.155101,-0.17456 -0.155101,-0.4265 v -5.42835 q 0,-1.27953 -0.62038,-2.07441 -0.600998,-0.81425 -1.880539,-0.81425 -0.814253,0 -1.550957,0.38774 -0.717319,0.38773 -1.163219,1.06628 -0.445899,0.65916 -0.445899,1.43464 v 5.42835 q 0,0.25202 -0.174484,0.4265 -0.1551,0.15517 -0.407125,0.15517 -0.25203,0 -0.426513,-0.15517 -0.155102,-0.17456 -0.155102,-0.4265 v -5.48651 q 0,-1.26016 -0.581608,-2.03563 -0.581611,-0.79487 -1.822376,-0.79487 -0.7948665,0 -1.5121831,0.38774 -0.6979312,0.38773 -1.1438324,1.04689 -0.4265126,0.63978 -0.4265126,1.39587 v 5.48651 q 0,0.25202 -0.1744827,0.4265 -0.155102,0.15517 -0.4071264,0.15517 -0.252032,0 -0.4265147,-0.15517 -0.1551018,-0.17456 -0.1551018,-0.4265 v -8.68535 q 0,-0.25204 0.1551018,-0.40713 0.1744827,-0.17459 0.4265147,-0.17459 0.2520299,0 0.4071264,0.17459 0.1744827,0.15516 0.1744827,0.40713 v 1.12442 q 0.5234482,-0.79486 1.4152481,-1.3183 0.8918005,-0.52345 1.880536,-0.52345 1.124446,0 1.938698,0.54285 0.814254,0.54282 1.163219,1.58971 0.407126,-0.85303 1.492795,-1.4928 1.085672,-0.63976 2.190728,-0.63976 z"
       style="font-style:normal;font-variant:normal;font-weight:normal;font-stretch:normal;font-size:10.58333302px;line-height:1.25;font-family:Quicksand;-inkscape-font-specification:Quicksand;letter-spacing:0px;word-spacing:0px;fill:#add100;fill-opacity:1;stroke:none;stroke-width:0.48467427"
       id="path5178"
       inkscape:connector-curvature="0" />
  </g>
</svg>
