<?xml version="1.0" encoding="UTF-8" standalone="no"?>
<!-- Created with Inkscape (http://www.inkscape.org/) -->

<svg
   xmlns:dc="http://purl.org/dc/elements/1.1/"
   xmlns:cc="http://creativecommons.org/ns#"
   xmlns:rdf="http://www.w3.org/1999/02/22-rdf-syntax-ns#"
   xmlns:svg="http://www.w3.org/2000/svg"
   xmlns="http://www.w3.org/2000/svg"
   xmlns:sodipodi="http://sodipodi.sourceforge.net/DTD/sodipodi-0.dtd"
   xmlns:inkscape="http://www.inkscape.org/namespaces/inkscape"
   width="1500"
   height="500"
   viewBox="0 0 396.87499 132.29167"
   version="1.1"
   id="svg5844"
   inkscape:version="0.92.2 5c3e80d, 2017-08-06"
   sodipodi:docname="splash.svg"
   inkscape:export-filename="/home/jak/code/mecono/brand/splash.png"
   inkscape:export-xdpi="96"
   inkscape:export-ydpi="96">
  <defs
     id="defs5838" />
  <sodipodi:namedview
     id="base"
     pagecolor="#ffffff"
     bordercolor="#666666"
     borderopacity="1.0"
     inkscape:pageopacity="0.0"
     inkscape:pageshadow="2"
     inkscape:zoom="0.654"
     inkscape:cx="257.74212"
     inkscape:cy="187.4856"
     inkscape:document-units="mm"
     inkscape:current-layer="layer1"
     showgrid="false"
     inkscape:window-width="2560"
     inkscape:window-height="1376"
     inkscape:window-x="0"
     inkscape:window-y="27"
     inkscape:window-maximized="1"
     units="px" />
  <metadata
     id="metadata5841">
    <rdf:RDF>
      <cc:Work
         rdf:about="">
        <dc:format>image/svg+xml</dc:format>
        <dc:type
           rdf:resource="http://purl.org/dc/dcmitype/StillImage" />
        <dc:title />
      </cc:Work>
    </rdf:RDF>
  </metadata>
  <g
     inkscape:groupmode="layer"
     id="layer2"
     inkscape:label="bg">
    <rect
       transform="translate(0,-164.70834)"
       style="opacity:0.98999999;fill:#add100;fill-opacity:1;stroke:none;stroke-width:1.89733565;stroke-linecap:butt;stroke-linejoin:miter;stroke-miterlimit:4;stroke-dasharray:1.89733569, 3.79467138999999998;stroke-dashoffset:0;stroke-opacity:1;paint-order:normal"
       id="rect6462"
       width="396.875"
       height="132.29167"
       x="0"
       y="164.70833" />
  </g>
  <g
     inkscape:label="Layer 1"
     inkscape:groupmode="layer"
     id="layer1"
     transform="translate(0,-164.70834)">
    <path
       style="fill:none;stroke:#ffffff;stroke-width:3.6969409;stroke-linecap:butt;stroke-linejoin:miter;stroke-miterlimit:4;stroke-dasharray:none;stroke-opacity:1"
       d="M 197.93272,219.69711 167.265,219.67264"
       id="path5133"
       inkscape:connector-curvature="0"
       sodipodi:nodetypes="cc" />
    <circle
       style="opacity:0.98999999;fill:#add100;fill-opacity:1;stroke:#ffffff;stroke-width:3.6969409;stroke-linecap:butt;stroke-linejoin:miter;stroke-miterlimit:4;stroke-dasharray:none;stroke-opacity:1;paint-order:normal"
       id="circle5121"
       cx="167.26497"
       cy="219.67273"
       r="9.5621471" />
    <path
       sodipodi:nodetypes="cc"
       inkscape:connector-curvature="0"
       id="path5158"
       d="m 197.93281,219.69711 -3.6e-4,-30.77674"
       style="fill:none;stroke:#ffffff;stroke-width:3.6969409;stroke-linecap:butt;stroke-linejoin:miter;stroke-miterlimit:4;stroke-dasharray:none;stroke-opacity:1" />
    <path
       style="fill:none;stroke:#ffffff;stroke-width:3.6969409;stroke-linecap:butt;stroke-linejoin:miter;stroke-miterlimit:4;stroke-dasharray:none;stroke-opacity:1"
       d="m 228.59882,219.69713 -30.6661,-2e-5"
       id="path5172"
       inkscape:connector-curvature="0"
       sodipodi:nodetypes="cc" />
    <circle
       r="9.5621471"
       cy="219.69716"
       cx="197.93283"
       id="circle5152"
       style="opacity:0.98999999;fill:#add100;fill-opacity:1;stroke:#ffffff;stroke-width:3.6969409;stroke-linecap:butt;stroke-linejoin:miter;stroke-miterlimit:4;stroke-dasharray:none;stroke-opacity:1;paint-order:normal" />
    <circle
       r="9.5621471"
       cy="188.92036"
       cx="197.93242"
       id="circle5156"
       style="opacity:0.98999999;fill:#add100;fill-opacity:1;stroke:#ffffff;stroke-width:3.6969409;stroke-linecap:butt;stroke-linejoin:miter;stroke-miterlimit:4;stroke-dasharray:none;stroke-opacity:1;paint-order:normal" />
    <circle
       style="opacity:0.98999999;fill:#add100;fill-opacity:1;stroke:#ffffff;stroke-width:3.6969409;stroke-linecap:butt;stroke-linejoin:miter;stroke-miterlimit:4;stroke-dasharray:none;stroke-opacity:1;paint-order:normal"
       id="circle5170"
       cx="228.59897"
       cy="219.69716"
       r="9.5621471" />
    <g
       aria-label="mecono"
       style="font-style:normal;font-variant:normal;font-weight:normal;font-stretch:normal;font-size:10.58333302px;line-height:1.25;font-family:'DejaVu Serif';-inkscape-font-specification:'DejaVu Serif';letter-spacing:0px;word-spacing:0px;fill:#ffffff;fill-opacity:1;stroke:none;stroke-width:0.26458332"
       id="text5176"
       transform="matrix(7.4059266,0,0,7.4059266,-137.73412,-1850.3518)">
      <path
         d="m 32.231386,282.46239 q 0.9525,0 1.397,0.59267 0.455083,0.58208 0.455083,1.54517 v 2.99508 q 0,0.13758 -0.09525,0.23283 -0.08467,0.0847 -0.22225,0.0847 -0.137583,0 -0.232833,-0.0847 -0.08467,-0.0953 -0.08467,-0.23283 v -2.96333 q 0,-0.6985 -0.338666,-1.13242 -0.328084,-0.4445 -1.026584,-0.4445 -0.4445,0 -0.846666,0.21167 -0.391584,0.21166 -0.635,0.58208 -0.243417,0.35983 -0.243417,0.78317 v 2.96333 q 0,0.13758 -0.09525,0.23283 -0.08467,0.0847 -0.22225,0.0847 -0.137583,0 -0.232833,-0.0847 -0.08467,-0.0953 -0.08467,-0.23283 v -2.99508 q 0,-0.68792 -0.3175,-1.11125 -0.3175,-0.43392 -0.994833,-0.43392 -0.433917,0 -0.8255,0.21167 -0.381,0.21166 -0.624417,0.5715 -0.232833,0.34925 -0.232833,0.762 v 2.99508 q 0,0.13758 -0.09525,0.23283 -0.08467,0.0847 -0.22225,0.0847 -0.137584,0 -0.232834,-0.0847 -0.08467,-0.0953 -0.08467,-0.23283 v -4.74133 q 0,-0.13759 0.08467,-0.22225 0.09525,-0.0953 0.232834,-0.0953 0.137583,0 0.22225,0.0953 0.09525,0.0847 0.09525,0.22225 v 0.61383 q 0.28575,-0.43392 0.772583,-0.71967 0.486833,-0.28575 1.026583,-0.28575 0.613834,0 1.058334,0.29634 0.4445,0.29633 0.635,0.86783 0.22225,-0.46567 0.814916,-0.81492 0.592667,-0.34925 1.195917,-0.34925 z"
         style="font-style:normal;font-variant:normal;font-weight:normal;font-stretch:normal;font-family:Quicksand;-inkscape-font-specification:Quicksand;fill:#ffffff;fill-opacity:1;stroke-width:0.26458332"
         id="path5178"
         inkscape:connector-curvature="0" />
      <path
         d="m 40.31821,284.89656 q 0,0.127 -0.09525,0.22225 -0.09525,0.0847 -0.22225,0.0847 h -4.0005 q 0,0.635 0.254,1.143 0.264583,0.49741 0.740833,0.79375 0.486834,0.28575 1.143,0.28575 0.508,0 0.910167,-0.21167 0.402167,-0.21167 0.645583,-0.53975 0.116417,-0.0952 0.22225,-0.0952 0.105834,0 0.1905,0.0847 0.08467,0.0847 0.08467,0.1905 0,0.11641 -0.105833,0.22225 -0.338667,0.41275 -0.85725,0.67733 -0.508,0.26458 -1.0795,0.26458 -0.814917,0 -1.439334,-0.34925 -0.624416,-0.34925 -0.973666,-0.97366 -0.34925,-0.635 -0.34925,-1.4605 0,-0.86784 0.338666,-1.51342 0.34925,-0.65617 0.92075,-0.99483 0.5715,-0.34925 1.217084,-0.34925 0.635,0 1.185333,0.29633 0.560917,0.29633 0.910167,0.86783 0.34925,0.5715 0.359833,1.35467 z m -2.455333,-1.905 q -0.613834,0 -1.143,0.42333 -0.518584,0.42334 -0.66675,1.21709 h 3.608916 v -0.0847 q -0.05292,-0.47625 -0.3175,-0.8255 -0.264583,-0.35983 -0.66675,-0.53975 -0.391583,-0.1905 -0.814916,-0.1905 z"
         style="font-style:normal;font-variant:normal;font-weight:normal;font-stretch:normal;font-family:Quicksand;-inkscape-font-specification:Quicksand;fill:#ffffff;fill-opacity:1;stroke-width:0.26458332"
         id="path5180"
         inkscape:connector-curvature="0" />
      <path
         d="m 43.97624,282.37773 q 0.497417,0 0.92075,0.11641 0.433916,0.10584 0.687916,0.29634 0.264584,0.1905 0.264584,0.41275 0,0.11641 -0.08467,0.21166 -0.07408,0.0952 -0.1905,0.0952 -0.105833,0 -0.179917,-0.0423 -0.0635,-0.0423 -0.148166,-0.127 -0.137583,-0.13758 -0.264583,-0.20108 -0.15875,-0.0741 -0.423334,-0.11642 -0.254,-0.0529 -0.550333,-0.0529 -0.582083,0 -1.068917,0.29634 -0.47625,0.29633 -0.751416,0.80433 -0.275167,0.508 -0.275167,1.12183 0,0.635 0.264583,1.143 0.264584,0.508 0.73025,0.80434 0.47625,0.28575 1.0795,0.28575 0.381,0 0.60325,-0.0635 0.232834,-0.0635 0.455084,-0.17992 0.07408,-0.0423 0.253999,-0.1905 0.08467,-0.0741 0.148167,-0.10583 0.0635,-0.0423 0.137583,-0.0423 0.127,0 0.201084,0.0847 0.07408,0.0741 0.07408,0.20108 0,0.17992 -0.254,0.39159 -0.254,0.20108 -0.6985,0.34925 -0.4445,0.14816 -0.98425,0.14816 -0.772583,0 -1.375833,-0.35983 -0.60325,-0.37042 -0.941917,-1.016 -0.328083,-0.64558 -0.328083,-1.44992 0,-0.77258 0.338667,-1.40758 0.338666,-0.64558 0.9525,-1.02658 0.613833,-0.381 1.407583,-0.381 z"
         style="font-style:normal;font-variant:normal;font-weight:normal;font-stretch:normal;font-family:Quicksand;-inkscape-font-specification:Quicksand;fill:#ffffff;fill-opacity:1;stroke-width:0.26458332"
         id="path5182"
         inkscape:connector-curvature="0" />
      <path
         d="m 52.069017,285.20348 q 0,0.79375 -0.34925,1.43933 -0.34925,0.64558 -0.963083,1.016 -0.613834,0.35983 -1.36525,0.35983 -0.751417,0 -1.36525,-0.35983 -0.613834,-0.37042 -0.963084,-1.016 -0.34925,-0.64558 -0.34925,-1.43933 0,-0.79375 0.34925,-1.43934 0.34925,-0.64558 0.963084,-1.016 0.613833,-0.37041 1.36525,-0.37041 0.751416,0 1.36525,0.37041 0.613833,0.37042 0.963083,1.016 0.34925,0.64559 0.34925,1.43934 z m -0.635,0 q 0,-0.635 -0.264583,-1.143 -0.264584,-0.508 -0.740834,-0.79375 -0.465666,-0.29634 -1.037166,-0.29634 -0.5715,0 -1.037167,0.29634 -0.465667,0.28575 -0.740833,0.79375 -0.264584,0.508 -0.264584,1.143 0,0.62441 0.264584,1.13241 0.275166,0.508 0.740833,0.80434 0.465667,0.28575 1.037167,0.28575 0.5715,0 1.037166,-0.28575 0.47625,-0.28575 0.740834,-0.79375 0.264583,-0.508 0.264583,-1.143 z"
         style="font-style:normal;font-variant:normal;font-weight:normal;font-stretch:normal;font-family:Quicksand;-inkscape-font-specification:Quicksand;fill:#ffffff;fill-opacity:1;stroke-width:0.26458332"
         id="path5184"
         inkscape:connector-curvature="0" />
      <path
         d="m 55.928792,282.37773 q 0.98425,0 1.439334,0.58208 0.465666,0.5715 0.465666,1.524 v 3.1115 q 0,0.13758 -0.09525,0.23283 -0.09525,0.0847 -0.22225,0.0847 -0.137583,0 -0.232833,-0.0847 -0.08467,-0.0953 -0.08467,-0.23283 v -3.07975 q 0,-0.68792 -0.34925,-1.11125 -0.338666,-0.43392 -1.058333,-0.43392 -0.455083,0 -0.867833,0.21167 -0.402167,0.21167 -0.656167,0.5715 -0.254,0.34925 -0.254,0.762 v 3.07975 q 0,0.13758 -0.09525,0.23283 -0.08467,0.0847 -0.22225,0.0847 -0.137583,0 -0.232833,-0.0847 -0.08467,-0.0953 -0.08467,-0.23283 v -4.74133 q 0,-0.13759 0.08467,-0.22225 0.09525,-0.0953 0.232833,-0.0953 0.137583,0 0.22225,0.0953 0.09525,0.0847 0.09525,0.22225 v 0.58208 q 0.28575,-0.45508 0.814917,-0.75142 0.53975,-0.30691 1.100666,-0.30691 z"
         style="font-style:normal;font-variant:normal;font-weight:normal;font-stretch:normal;font-family:Quicksand;-inkscape-font-specification:Quicksand;fill:#ffffff;fill-opacity:1;stroke-width:0.26458332"
         id="path5186"
         inkscape:connector-curvature="0" />
      <path
         d="m 64.492031,285.20348 q 0,0.79375 -0.34925,1.43933 -0.34925,0.64558 -0.963084,1.016 -0.613833,0.35983 -1.36525,0.35983 -0.751416,0 -1.36525,-0.35983 -0.613833,-0.37042 -0.963083,-1.016 -0.34925,-0.64558 -0.34925,-1.43933 0,-0.79375 0.34925,-1.43934 0.34925,-0.64558 0.963083,-1.016 0.613834,-0.37041 1.36525,-0.37041 0.751417,0 1.36525,0.37041 0.613834,0.37042 0.963084,1.016 0.34925,0.64559 0.34925,1.43934 z m -0.635,0 q 0,-0.635 -0.264584,-1.143 -0.264583,-0.508 -0.740833,-0.79375 -0.465667,-0.29634 -1.037167,-0.29634 -0.5715,0 -1.037166,0.29634 -0.465667,0.28575 -0.740834,0.79375 -0.264583,0.508 -0.264583,1.143 0,0.62441 0.264583,1.13241 0.275167,0.508 0.740834,0.80434 0.465666,0.28575 1.037166,0.28575 0.5715,0 1.037167,-0.28575 0.47625,-0.28575 0.740833,-0.79375 0.264584,-0.508 0.264584,-1.143 z"
         style="font-style:normal;font-variant:normal;font-weight:normal;font-stretch:normal;font-family:Quicksand;-inkscape-font-specification:Quicksand;fill:#ffffff;fill-opacity:1;stroke-width:0.26458332"
         id="path5188"
         inkscape:connector-curvature="0" />
    </g>
  </g>
</svg>
