<?xml version="1.0" encoding="UTF-8" standalone="no"?>
<!-- Created with Inkscape (http://www.inkscape.org/) -->

<svg
   xmlns:dc="http://purl.org/dc/elements/1.1/"
   xmlns:cc="http://creativecommons.org/ns#"
   xmlns:rdf="http://www.w3.org/1999/02/22-rdf-syntax-ns#"
   xmlns:svg="http://www.w3.org/2000/svg"
   xmlns="http://www.w3.org/2000/svg"
   xmlns:xlink="http://www.w3.org/1999/xlink"
   xmlns:sodipodi="http://sodipodi.sourceforge.net/DTD/sodipodi-0.dtd"
   xmlns:inkscape="http://www.inkscape.org/namespaces/inkscape"
   width="1000"
   height="1000"
   viewBox="0 0 264.58333 264.58335"
   version="1.1"
   id="svg8"
   sodipodi:docname="mesh.svg"
   inkscape:version="0.92.2 2405546, 2018-03-11">
  <defs
     id="defs2">
    <linearGradient
       inkscape:collect="always"
       id="linearGradient34235">
      <stop
         style="stop-color:#fcfdfd;stop-opacity:1;"
         offset="0"
         id="stop34231" />
      <stop
         style="stop-color:#fcfdfd;stop-opacity:0;"
         offset="1"
         id="stop34233" />
    </linearGradient>
    <marker
       inkscape:stockid="DotM"
       orient="auto"
       refY="0"
       refX="0"
       id="marker27626"
       style="overflow:visible"
       inkscape:isstock="true">
      <path
         id="path27624"
         d="m -2.5,-1 c 0,2.76 -2.24,5 -5,5 -2.76,0 -5,-2.24 -5,-5 0,-2.76 2.24,-5 5,-5 2.76,0 5,2.24 5,5 z"
         style="fill:#2f3542;fill-opacity:1;fill-rule:evenodd;stroke:#2f3542;stroke-width:1.00000003pt;stroke-opacity:1"
         transform="matrix(0.4,0,0,0.4,2.96,0.4)"
         inkscape:connector-curvature="0" />
    </marker>
    <marker
       inkscape:stockid="DotM"
       orient="auto"
       refY="0"
       refX="0"
       id="marker27388"
       style="overflow:visible"
       inkscape:isstock="true">
      <path
         id="path27386"
         d="m -2.5,-1 c 0,2.76 -2.24,5 -5,5 -2.76,0 -5,-2.24 -5,-5 0,-2.76 2.24,-5 5,-5 2.76,0 5,2.24 5,5 z"
         style="fill:#2f3542;fill-opacity:1;fill-rule:evenodd;stroke:#2f3542;stroke-width:1.00000003pt;stroke-opacity:1"
         transform="matrix(0.4,0,0,0.4,2.96,0.4)"
         inkscape:connector-curvature="0" />
    </marker>
    <marker
       inkscape:isstock="true"
       style="overflow:visible"
       id="marker24198"
       refX="0"
       refY="0"
       orient="auto"
       inkscape:stockid="DotM">
      <path
         transform="matrix(0.4,0,0,0.4,2.96,0.4)"
         style="fill:#2f3542;fill-opacity:1;fill-rule:evenodd;stroke:#000000;stroke-width:1.00000003pt;stroke-opacity:1"
         d="m -2.5,-1 c 0,2.76 -2.24,5 -5,5 -2.76,0 -5,-2.24 -5,-5 0,-2.76 2.24,-5 5,-5 2.76,0 5,2.24 5,5 z"
         id="path24196"
         inkscape:connector-curvature="0" />
    </marker>
    <marker
       inkscape:isstock="true"
       style="overflow:visible"
       id="marker23984"
       refX="0"
       refY="0"
       orient="auto"
       inkscape:stockid="DotM">
      <path
         transform="matrix(0.4,0,0,0.4,2.96,0.4)"
         style="fill:#2f3542;fill-opacity:1;fill-rule:evenodd;stroke:#000000;stroke-width:1.00000003pt;stroke-opacity:1"
         d="m -2.5,-1 c 0,2.76 -2.24,5 -5,5 -2.76,0 -5,-2.24 -5,-5 0,-2.76 2.24,-5 5,-5 2.76,0 5,2.24 5,5 z"
         id="path23982"
         inkscape:connector-curvature="0" />
    </marker>
    <linearGradient
       inkscape:collect="always"
       xlink:href="#linearGradient34235"
       id="linearGradient34237"
       x1="287.7551"
       y1="-21.14698"
       x2="185.20592"
       y2="-2.4676669"
       gradientUnits="userSpaceOnUse" />
  </defs>
  <sodipodi:namedview
     id="base"
     pagecolor="#ffffff"
     bordercolor="#666666"
     borderopacity="1.0"
     inkscape:pageopacity="0.0"
     inkscape:pageshadow="2"
     inkscape:zoom="0.7"
     inkscape:cx="506.25551"
     inkscape:cy="385.95006"
     inkscape:document-units="mm"
     inkscape:current-layer="layer2"
     showgrid="false"
     inkscape:snap-global="false"
     inkscape:window-width="2560"
     inkscape:window-height="1376"
     inkscape:window-x="0"
     inkscape:window-y="27"
     inkscape:window-maximized="1"
     showguides="true"
     units="px"
     fit-margin-top="0"
     fit-margin-left="0"
     fit-margin-right="0"
     fit-margin-bottom="0"
     inkscape:snap-bbox="true"
     inkscape:bbox-paths="true"
     inkscape:bbox-nodes="true"
     inkscape:object-nodes="false"
     inkscape:snap-nodes="false"
     inkscape:snap-object-midpoints="true"
     inkscape:snap-others="true"
     inkscape:snap-page="true" />
  <metadata
     id="metadata5">
    <rdf:RDF>
      <cc:Work
         rdf:about="">
        <dc:format>image/svg+xml</dc:format>
        <dc:type
           rdf:resource="http://purl.org/dc/dcmitype/StillImage" />
        <dc:title></dc:title>
      </cc:Work>
    </rdf:RDF>
  </metadata>
  <g
     inkscape:groupmode="layer"
     id="layer2"
     inkscape:label="devices"
     style="display:inline"
     transform="translate(-10.656111,11.799809)">
    <path
       id="path4731"
       d="m 10.656134,-9.9099358 v 3.7797729 c 0,0 0.06572,1.889874 2.204881,1.889874 2.139185,0 19.882466,0 22.048575,0 2.166107,0 2.204855,-1.889874 2.204855,-1.889874 v -3.7797729 c 0,0 -0.01724,-1.8898732 -2.204855,-1.8898732 -2.18764,0 -20.273273,0 -22.048575,0 -2.236083,0 -2.204881,1.8898732 -2.204881,1.8898732 z m 0,9.4494029 v 3.7797811 c 0,0 0.06572,1.8898651 2.204881,1.8898651 2.139185,0 19.882466,0 22.048575,0 2.166107,0 2.204855,-1.8898651 2.204855,-1.8898651 v -3.7797811 c 0,0 -0.01724,-1.889865 -2.204855,-1.889865 -2.18764,0 -20.273273,0 -22.048575,0 -2.236083,0 -2.204881,1.889865 -2.204881,1.889865 z m 0,9.4494102 V 12.76865 c 0,0 0.06572,1.889874 2.204881,1.889874 2.139185,0 19.882466,0 22.048575,0 2.166107,0 2.204855,-1.889874 2.204855,-1.889874 V 8.9888773 c 0,0 -0.01724,-1.889873 -2.204855,-1.889873 -2.18764,0 -20.273273,0 -22.048575,0 -2.236083,0 -2.204881,1.889873 -2.204881,1.889873 z m 2.204881,-5.6696291 v -3.7797811 h 2.204842 v 3.7797811 z m 4.409697,0 v -3.7797811 h 2.204868 v 3.7797811 z m 4.409722,0 v -3.7797811 h 2.204868 v 3.7797811 z m 4.409723,0 v -3.7797811 h 2.204854 v 3.7797811 z m 6.614577,-1.8898911 v -1.88989 h 2.204856 v 1.88989 z m -19.843719,-7.55952 v -3.7797729 h 2.204842 v 3.7797729 z m 4.409697,0 v -3.7797729 h 2.204868 v 3.7797729 z m 4.409722,0 v -3.7797729 h 2.204868 v 3.7797729 z m 4.409723,0 v -3.7797729 h 2.204854 v 3.7797729 z m 6.614577,-1.889882 v -1.8898909 h 2.204856 v 1.8898909 z M 12.861015,12.76865 V 8.9888773 h 2.204842 V 12.76865 Z m 4.409697,0 V 8.9888773 H 19.47558 V 12.76865 Z m 4.409722,0 V 8.9888773 h 2.204868 V 12.76865 Z m 4.409723,0 V 8.9888773 h 2.204854 V 12.76865 Z m 6.614577,-1.88989 V 8.9888773 H 34.90959 V 10.87876 Z"
       inkscape:connector-curvature="0"
       style="display:inline;fill:#2f3542;fill-opacity:1;stroke-width:0.03189536" />
    <path
       id="path4764"
       d="m 76.80217,-11.799809 c 0,0 -8.183591,7.8492843 -12.756892,12.10027678 -0.2685,0.27055578 -0.4725,0.66440055 -0.4725,1.12888982 0,0.812834 0.59135,1.4698901 1.32295,1.4698901 h 2.645801 V 13.188578 c 0,0.81289 0.59135,1.469946 1.32295,1.469946 h 3.96874 c 0.73155,0 1.3229,-0.658556 1.3229,-1.469946 V 7.3089736 h 5.291651 v 5.8796044 c 0,0.81139 0.59135,1.469946 1.32295,1.469946 h 3.968741 c 0.73155,0 1.3229,-0.657056 1.3229,-1.469946 V 2.8992477 h 2.64584 c 0.73156,0 1.32291,-0.6570561 1.32291,-1.4698901 0,-0.46443371 -0.203509,-0.85844515 -0.50665,-1.12888982 C 84.982861,-3.9505247 76.80196,-11.799809 76.80196,-11.799809 Z"
       inkscape:connector-curvature="0"
       style="display:inline;fill:#2f3542;fill-opacity:1;stroke-width:1.39447582" />
    <g
       style="display:inline"
       id="g942"
       transform="translate(20.577054,-22.363266)">
      <g
         style="display:inline;fill:#2f3542;fill-opacity:1"
         transform="matrix(0.29277136,0,0,0.29277136,42.734173,116.22669)"
         id="g28883">
        <g
           style="fill:#2f3542;fill-opacity:1"
           id="g28881">
          <path
             style="fill:#2f3542;fill-opacity:1"
             inkscape:connector-curvature="0"
             d="m 25.986,80.5 2.006,-3.408 c 0.023,0.012 0.043,0.029 0.066,0.041 l 14.979,7.281 v 4.027 c 0,1.387 1.125,2.512 2.514,2.512 1.387,0 2.512,-1.125 2.512,-2.512 v -4.229 l 14.119,-9.031 2.871,4.775 c 0.473,0.783 1.303,1.217 2.156,1.217 0.441,0 0.887,-0.117 1.293,-0.359 1.189,-0.717 1.572,-2.26 0.857,-3.449 L 48.82,43.228 c 2.65,-1.248 4.494,-3.939 4.494,-7.059 0,-4.305 -3.502,-7.809 -7.807,-7.809 -4.303,0 -7.805,3.504 -7.805,7.809 0,3.09 1.807,5.758 4.416,7.022 -4.482,7.618 -20.463,34.761 -20.463,34.761 0,0 -1.725,2.761 0.531,3.861 2.564,1.25 3.8,-1.313 3.8,-1.313 z m 22.077,-28.781 6.5,10.801 -6.5,3.65 z m -5.026,14.9 -7.059,-3.092 7.059,-11.99 z m 5.026,11.629 v -6.316 l 9.092,-5.104 2.436,4.047 z M 45.508,33.385 c 1.533,0 2.781,1.249 2.781,2.783 0,1.534 -1.248,2.781 -2.781,2.781 -1.533,0 -2.779,-1.247 -2.779,-2.781 0,-1.534 1.246,-2.783 2.779,-2.783 z m -14.961,39.369 2.865,-4.865 9.625,4.215 v 6.723 z"
             id="path28873" />
          <path
             style="fill:#2f3542;fill-opacity:1"
             inkscape:connector-curvature="0"
             d="m 61.457,22.071 c 0,0 0,0 0.002,0 v 0 c 0.699,0 1.396,-0.291 1.893,-0.859 0.914,-1.045 0.807,-2.632 -0.238,-3.545 -2.146,-1.877 -4.566,-3.359 -7.139,-4.461 -3.307,-1.418 -6.875,-2.189 -10.52,-2.189 0,0 0,0 -0.002,0 h -0.002 c -5.555,0 -10.945,1.744 -15.459,4.938 -0.756,0.533 -1.494,1.098 -2.197,1.711 -1.045,0.914 -1.152,2.5 -0.238,3.545 0.457,0.524 1.084,0.813 1.729,0.854 0.09,0.006 0.18,-0.004 0.271,-0.008 0.068,-0.003 0.137,0.003 0.205,-0.006 0.482,-0.06 0.951,-0.259 1.346,-0.603 0.619,-0.543 1.275,-1.034 1.945,-1.5 3.641,-2.523 7.957,-3.906 12.4,-3.906 2.783,0 5.516,0.552 8.066,1.574 2.273,0.91 4.404,2.191 6.285,3.835 0.477,0.416 1.067,0.62 1.653,0.62 z"
             id="path28875" />
          <path
             style="fill:#2f3542;fill-opacity:1"
             inkscape:connector-curvature="0"
             d="M 69.971,9.815 C 63.157,3.86 54.451,0.581 45.455,0.581 c -8.998,0 -17.705,3.279 -24.518,9.233 -1.045,0.913 -1.15,2.501 -0.238,3.545 0.914,1.045 2.502,1.151 3.545,0.238 5.896,-5.153 13.43,-7.991 21.211,-7.991 7.779,0 15.311,2.838 21.209,7.993 0.477,0.416 1.064,0.62 1.652,0.62 0.699,0 1.396,-0.291 1.893,-0.859 0.914,-1.045 0.807,-2.632 -0.238,-3.545 z"
             id="path28877" />
          <path
             style="fill:#2f3542;fill-opacity:1"
             inkscape:connector-curvature="0"
             d="m 33.357,27.151 c 0,0.017 -0.002,0.033 0,0.049 0.061,0.48 0.26,0.95 0.604,1.343 0.914,1.044 2.504,1.148 3.545,0.233 0.234,-0.203 0.477,-0.393 0.723,-0.577 1.488,-1.113 3.199,-1.868 5.004,-2.209 0.02,-0.004 0.039,-0.01 0.059,-0.014 0.037,-0.007 0.074,-0.009 0.111,-0.015 0.674,-0.117 1.359,-0.182 2.051,-0.182 2.918,0.001 5.74,1.064 7.949,2.996 0.119,0.104 0.244,0.195 0.377,0.273 0.395,0.234 0.836,0.35 1.277,0.35 0.699,0 1.395,-0.29 1.893,-0.857 0.914,-1.045 0.807,-2.632 -0.236,-3.545 -0.002,-10e-4 -0.002,-0.002 -0.002,-0.002 v 0 c -0.004,-0.003 -0.006,-0.005 -0.01,-0.008 -3.123,-2.729 -7.117,-4.232 -11.246,-4.232 0,0 0,0 -0.002,0 h -0.002 c -1.035,0 -2.063,0.095 -3.068,0.279 -2.389,0.438 -4.654,1.393 -6.66,2.785 -0.104,0.072 -0.213,0.135 -0.316,0.209 -0.033,0.025 -0.064,0.055 -0.1,0.08 -0.379,0.28 -0.752,0.572 -1.109,0.886 -0.393,0.343 -0.652,0.782 -0.775,1.251 -0.018,0.063 -0.02,0.126 -0.031,0.189 -0.018,0.095 -0.041,0.188 -0.047,0.285 -0.012,0.145 -0.004,0.289 0.011,0.433 z"
             id="path28879" />
        </g>
      </g>
    </g>
    <g
       style="display:inline"
       id="g905"
       transform="translate(11.620838,-56.648991)">
      <g
         id="g4750"
         transform="matrix(0.55121528,0,0,0.55121528,110.41443,44.968534)"
         style="display:inline">
        <path
           style="fill:#2f3542;fill-opacity:1;stroke-width:1.09090912"
           id="path4746"
           d="M 22.545443,-0.21672788 H 5.090898 c -3.010909,0 -5.45454505,2.44363698 -5.45454505,5.45454598 V 42.328727 c 0,3.010909 2.44363605,5.454545 5.45454505,5.454545 h 17.454545 c 3.010909,0 5.454545,-2.443636 5.454545,-5.454545 V 5.2378181 c 0,-3.010909 -2.443636,-5.45454598 -5.454545,-5.45454598 z M 13.81817,45.601454 c -1.810909,0 -3.272726,-1.461818 -3.272726,-3.272727 0,-1.81091 1.461817,-3.272728 3.272726,-3.272728 1.810909,0 3.272727,1.461818 3.272727,3.272728 0,1.810909 -1.461818,3.272727 -3.272727,3.272727 z m 9.818182,-8.727273 H 3.999989 V 6.3287271 h 19.636363 z"
           inkscape:connector-curvature="0" />
      </g>
    </g>
    <g
       style="display:inline"
       transform="translate(-41.295829,-3.732325)"
       id="g913">
      <g
         style="display:inline"
         transform="matrix(0.55121528,0,0,0.55121528,110.41443,44.968534)"
         id="g911">
        <path
           inkscape:connector-curvature="0"
           d="M 22.545443,-0.21672788 H 5.090898 c -3.010909,0 -5.45454505,2.44363698 -5.45454505,5.45454598 V 42.328727 c 0,3.010909 2.44363605,5.454545 5.45454505,5.454545 h 17.454545 c 3.010909,0 5.454545,-2.443636 5.454545,-5.454545 V 5.2378181 c 0,-3.010909 -2.443636,-5.45454598 -5.454545,-5.45454598 z M 13.81817,45.601454 c -1.810909,0 -3.272726,-1.461818 -3.272726,-3.272727 0,-1.81091 1.461817,-3.272728 3.272726,-3.272728 1.810909,0 3.272727,1.461818 3.272727,3.272728 0,1.810909 -1.461818,3.272727 -3.272727,3.272727 z m 9.818182,-8.727273 H 3.999989 V 6.3287271 h 19.636363 z"
           id="path909"
           style="fill:#2f3542;fill-opacity:1;stroke-width:1.09090912" />
      </g>
    </g>
    <g
       style="display:inline"
       id="g923"
       transform="translate(11.620838,49.184342)">
      <g
         id="g921"
         transform="matrix(0.55121528,0,0,0.55121528,110.41443,44.968534)"
         style="display:inline">
        <path
           style="fill:#2f3542;fill-opacity:1;stroke-width:1.09090912"
           id="path919"
           d="M 22.545443,-0.21672788 H 5.090898 c -3.010909,0 -5.45454505,2.44363698 -5.45454505,5.45454598 V 42.328727 c 0,3.010909 2.44363605,5.454545 5.45454505,5.454545 h 17.454545 c 3.010909,0 5.454545,-2.443636 5.454545,-5.454545 V 5.2378181 c 0,-3.010909 -2.443636,-5.45454598 -5.454545,-5.45454598 z M 13.81817,45.601454 c -1.810909,0 -3.272726,-1.461818 -3.272726,-3.272727 0,-1.81091 1.461817,-3.272728 3.272726,-3.272728 1.810909,0 3.272727,1.461818 3.272727,3.272728 0,1.810909 -1.461818,3.272727 -3.272727,3.272727 z m 9.818182,-8.727273 H 3.999989 V 6.3287271 h 19.636363 z"
           inkscape:connector-curvature="0" />
      </g>
    </g>
    <path
       style="display:inline;fill:#2f3542;fill-opacity:1;stroke-width:0.03189536"
       inkscape:connector-curvature="0"
       d="m 116.48947,43.006731 v 3.779773 c 0,0 0.0657,1.889874 2.20488,1.889874 2.13919,0 19.88247,0 22.04858,0 2.1661,0 2.20485,-1.889874 2.20485,-1.889874 v -3.779773 c 0,0 -0.0172,-1.889873 -2.20485,-1.889873 -2.18764,0 -20.27328,0 -22.04858,0 -2.23608,0 -2.20488,1.889873 -2.20488,1.889873 z m 0,9.449403 v 3.779781 c 0,0 0.0657,1.889865 2.20488,1.889865 2.13919,0 19.88247,0 22.04858,0 2.1661,0 2.20485,-1.889865 2.20485,-1.889865 v -3.779781 c 0,0 -0.0172,-1.889865 -2.20485,-1.889865 -2.18764,0 -20.27328,0 -22.04858,0 -2.23608,0 -2.20488,1.889865 -2.20488,1.889865 z m 0,9.44941 v 3.779773 c 0,0 0.0657,1.889874 2.20488,1.889874 2.13919,0 19.88247,0 22.04858,0 2.1661,0 2.20485,-1.889874 2.20485,-1.889874 v -3.779773 c 0,0 -0.0172,-1.889873 -2.20485,-1.889873 -2.18764,0 -20.27328,0 -22.04858,0 -2.23608,0 -2.20488,1.889873 -2.20488,1.889873 z m 2.20488,-5.669629 v -3.779781 h 2.20484 v 3.779781 z m 4.4097,0 v -3.779781 h 2.20487 v 3.779781 z m 4.40972,0 v -3.779781 h 2.20487 v 3.779781 z m 4.40972,0 v -3.779781 h 2.20486 v 3.779781 z m 6.61458,-1.889891 v -1.88989 h 2.20486 v 1.88989 z m -19.84372,-7.55952 v -3.779773 h 2.20484 v 3.779773 z m 4.4097,0 v -3.779773 h 2.20487 v 3.779773 z m 4.40972,0 v -3.779773 h 2.20487 v 3.779773 z m 4.40972,0 v -3.779773 h 2.20486 v 3.779773 z m 6.61458,-1.889882 v -1.889891 h 2.20486 v 1.889891 z m -19.84372,20.788695 v -3.779773 h 2.20484 v 3.779773 z m 4.4097,0 v -3.779773 h 2.20487 v 3.779773 z m 4.40972,0 v -3.779773 h 2.20487 v 3.779773 z m 4.40972,0 v -3.779773 h 2.20486 v 3.779773 z m 6.61458,-1.88989 v -1.889883 h 2.20486 v 1.889883 z"
       id="path925" />
    <path
       id="path944"
       d="m 182.6355,-11.799809 c 0,0 -8.18359,7.8492851 -12.75689,12.10027718 -0.2685,0.27055595 -0.4725,0.66440095 -0.4725,1.12888992 0,0.812834 0.59135,1.46989 1.32295,1.46989 h 2.6458 V 13.188578 c 0,0.81289 0.59135,1.469946 1.32295,1.469946 h 3.96874 c 0.73155,0 1.3229,-0.658556 1.3229,-1.469946 V 7.3089741 h 5.29165 v 5.8796039 c 0,0.81139 0.59135,1.469946 1.32295,1.469946 h 3.96874 c 0.73155,0 1.3229,-0.657056 1.3229,-1.469946 V 2.8992481 h 2.64584 c 0.73156,0 1.32291,-0.657056 1.32291,-1.46989 0,-0.46443397 -0.20351,-0.85844497 -0.50665,-1.12888992 -4.5416,-4.25099208 -12.7225,-12.10027718 -12.7225,-12.10027718 z"
       inkscape:connector-curvature="0"
       style="display:inline;fill:#2f3542;fill-opacity:1;stroke-width:1.39447582" />
    <g
       style="display:inline"
       id="g952"
       transform="translate(-94.212496,49.184342)">
      <g
         id="g950"
         transform="matrix(0.55121528,0,0,0.55121528,110.41443,44.968534)"
         style="display:inline">
        <path
           style="fill:#2f3542;fill-opacity:1;stroke-width:1.09090912"
           id="path948"
           d="M 22.545443,-0.21672788 H 5.090898 c -3.010909,0 -5.45454505,2.44363698 -5.45454505,5.45454598 V 42.328727 c 0,3.010909 2.44363605,5.454545 5.45454505,5.454545 h 17.454545 c 3.010909,0 5.454545,-2.443636 5.454545,-5.454545 V 5.2378181 c 0,-3.010909 -2.443636,-5.45454598 -5.454545,-5.45454598 z M 13.81817,45.601454 c -1.810909,0 -3.272726,-1.461818 -3.272726,-3.272727 0,-1.81091 1.461817,-3.272728 3.272726,-3.272728 1.810909,0 3.272727,1.461818 3.272727,3.272728 0,1.810909 -1.461818,3.272727 -3.272727,3.272727 z m 9.818182,-8.727273 H 3.999989 V 6.3287271 h 19.636363 z"
           inkscape:connector-curvature="0" />
      </g>
    </g>
    <g
       style="display:inline"
       transform="translate(126.41039,-75.279933)"
       id="g968">
      <g
         id="g966"
         transform="matrix(0.29277136,0,0,0.29277136,42.734173,116.22669)"
         style="display:inline;fill:#2f3542;fill-opacity:1">
        <g
           id="g964"
           style="fill:#2f3542;fill-opacity:1">
          <path
             id="path956"
             d="m 25.986,80.5 2.006,-3.408 c 0.023,0.012 0.043,0.029 0.066,0.041 l 14.979,7.281 v 4.027 c 0,1.387 1.125,2.512 2.514,2.512 1.387,0 2.512,-1.125 2.512,-2.512 v -4.229 l 14.119,-9.031 2.871,4.775 c 0.473,0.783 1.303,1.217 2.156,1.217 0.441,0 0.887,-0.117 1.293,-0.359 1.189,-0.717 1.572,-2.26 0.857,-3.449 L 48.82,43.228 c 2.65,-1.248 4.494,-3.939 4.494,-7.059 0,-4.305 -3.502,-7.809 -7.807,-7.809 -4.303,0 -7.805,3.504 -7.805,7.809 0,3.09 1.807,5.758 4.416,7.022 -4.482,7.618 -20.463,34.761 -20.463,34.761 0,0 -1.725,2.761 0.531,3.861 2.564,1.25 3.8,-1.313 3.8,-1.313 z m 22.077,-28.781 6.5,10.801 -6.5,3.65 z m -5.026,14.9 -7.059,-3.092 7.059,-11.99 z m 5.026,11.629 v -6.316 l 9.092,-5.104 2.436,4.047 z M 45.508,33.385 c 1.533,0 2.781,1.249 2.781,2.783 0,1.534 -1.248,2.781 -2.781,2.781 -1.533,0 -2.779,-1.247 -2.779,-2.781 0,-1.534 1.246,-2.783 2.779,-2.783 z m -14.961,39.369 2.865,-4.865 9.625,4.215 v 6.723 z"
             inkscape:connector-curvature="0"
             style="fill:#2f3542;fill-opacity:1" />
          <path
             id="path958"
             d="m 61.457,22.071 c 0,0 0,0 0.002,0 v 0 c 0.699,0 1.396,-0.291 1.893,-0.859 0.914,-1.045 0.807,-2.632 -0.238,-3.545 -2.146,-1.877 -4.566,-3.359 -7.139,-4.461 -3.307,-1.418 -6.875,-2.189 -10.52,-2.189 0,0 0,0 -0.002,0 h -0.002 c -5.555,0 -10.945,1.744 -15.459,4.938 -0.756,0.533 -1.494,1.098 -2.197,1.711 -1.045,0.914 -1.152,2.5 -0.238,3.545 0.457,0.524 1.084,0.813 1.729,0.854 0.09,0.006 0.18,-0.004 0.271,-0.008 0.068,-0.003 0.137,0.003 0.205,-0.006 0.482,-0.06 0.951,-0.259 1.346,-0.603 0.619,-0.543 1.275,-1.034 1.945,-1.5 3.641,-2.523 7.957,-3.906 12.4,-3.906 2.783,0 5.516,0.552 8.066,1.574 2.273,0.91 4.404,2.191 6.285,3.835 0.477,0.416 1.067,0.62 1.653,0.62 z"
             inkscape:connector-curvature="0"
             style="fill:#2f3542;fill-opacity:1" />
          <path
             id="path960"
             d="M 69.971,9.815 C 63.157,3.86 54.451,0.581 45.455,0.581 c -8.998,0 -17.705,3.279 -24.518,9.233 -1.045,0.913 -1.15,2.501 -0.238,3.545 0.914,1.045 2.502,1.151 3.545,0.238 5.896,-5.153 13.43,-7.991 21.211,-7.991 7.779,0 15.311,2.838 21.209,7.993 0.477,0.416 1.064,0.62 1.652,0.62 0.699,0 1.396,-0.291 1.893,-0.859 0.914,-1.045 0.807,-2.632 -0.238,-3.545 z"
             inkscape:connector-curvature="0"
             style="fill:#2f3542;fill-opacity:1" />
          <path
             id="path962"
             d="m 33.357,27.151 c 0,0.017 -0.002,0.033 0,0.049 0.061,0.48 0.26,0.95 0.604,1.343 0.914,1.044 2.504,1.148 3.545,0.233 0.234,-0.203 0.477,-0.393 0.723,-0.577 1.488,-1.113 3.199,-1.868 5.004,-2.209 0.02,-0.004 0.039,-0.01 0.059,-0.014 0.037,-0.007 0.074,-0.009 0.111,-0.015 0.674,-0.117 1.359,-0.182 2.051,-0.182 2.918,0.001 5.74,1.064 7.949,2.996 0.119,0.104 0.244,0.195 0.377,0.273 0.395,0.234 0.836,0.35 1.277,0.35 0.699,0 1.395,-0.29 1.893,-0.857 0.914,-1.045 0.807,-2.632 -0.236,-3.545 -0.002,-10e-4 -0.002,-0.002 -0.002,-0.002 v 0 c -0.004,-0.003 -0.006,-0.005 -0.01,-0.008 -3.123,-2.729 -7.117,-4.232 -11.246,-4.232 0,0 0,0 -0.002,0 h -0.002 c -1.035,0 -2.063,0.095 -3.068,0.279 -2.389,0.438 -4.654,1.393 -6.66,2.785 -0.104,0.072 -0.213,0.135 -0.316,0.209 -0.033,0.025 -0.064,0.055 -0.1,0.08 -0.379,0.28 -0.752,0.572 -1.109,0.886 -0.393,0.343 -0.652,0.782 -0.775,1.251 -0.018,0.063 -0.02,0.126 -0.031,0.189 -0.018,0.095 -0.041,0.188 -0.047,0.285 -0.012,0.145 -0.004,0.289 0.011,0.433 z"
             inkscape:connector-curvature="0"
             style="fill:#2f3542;fill-opacity:1" />
        </g>
      </g>
    </g>
    <path
       style="display:inline;fill:#2f3542;fill-opacity:1;stroke-width:1.39447582"
       inkscape:connector-curvature="0"
       d="m 182.6355,94.033526 c 0,0 -8.18359,7.849284 -12.75689,12.100274 -0.2685,0.27056 -0.4725,0.66441 -0.4725,1.12889 0,0.81284 0.59135,1.46989 1.32295,1.46989 h 2.6458 v 10.28933 c 0,0.81289 0.59135,1.46995 1.32295,1.46995 h 3.96874 c 0.73155,0 1.3229,-0.65856 1.3229,-1.46995 v -5.8796 h 5.29165 v 5.8796 c 0,0.81139 0.59135,1.46995 1.32295,1.46995 h 3.96874 c 0.73155,0 1.3229,-0.65706 1.3229,-1.46995 v -10.28933 h 2.64584 c 0.73156,0 1.32291,-0.65705 1.32291,-1.46989 0,-0.46443 -0.20351,-0.85844 -0.50665,-1.12889 -4.5416,-4.25099 -12.7225,-12.100274 -12.7225,-12.100274 z"
       id="path970" />
    <path
       id="path972"
       d="m 23.885501,41.116859 c 0,0 -8.18359,7.849282 -12.75689,12.100272 -0.2685,0.27056 -0.4725,0.66441 -0.4725,1.12889 0,0.81284 0.59135,1.46989 1.32295,1.46989 h 2.6458 v 10.28933 c 0,0.81289 0.59135,1.46995 1.32295,1.46995 h 3.96874 c 0.73155,0 1.3229,-0.65856 1.3229,-1.46995 v -5.8796 h 5.29165 v 5.8796 c 0,0.81139 0.59135,1.46995 1.32295,1.46995 h 3.96874 c 0.73155,0 1.3229,-0.65706 1.3229,-1.46995 v -10.28933 h 2.64584 c 0.73156,0 1.32291,-0.65705 1.32291,-1.46989 0,-0.46443 -0.20351,-0.85844 -0.50665,-1.12889 -4.5416,-4.25099 -12.7225,-12.100272 -12.7225,-12.100272 z"
       inkscape:connector-curvature="0"
       style="display:inline;fill:#2f3542;fill-opacity:1;stroke-width:1.39447582" />
    <path
       id="path974"
       d="m 76.802168,199.86686 c 0,0 -8.18359,7.84928 -12.75689,12.10027 -0.2685,0.27056 -0.4725,0.66441 -0.4725,1.12889 0,0.81284 0.59135,1.46989 1.32295,1.46989 h 2.6458 v 10.28933 c 0,0.81289 0.59135,1.46995 1.32295,1.46995 h 3.96874 c 0.73155,0 1.3229,-0.65856 1.3229,-1.46995 v -5.8796 h 5.29165 v 5.8796 c 0,0.81139 0.59135,1.46995 1.32295,1.46995 h 3.96874 c 0.73155,0 1.3229,-0.65706 1.3229,-1.46995 v -10.28933 h 2.64584 c 0.73156,0 1.32291,-0.65705 1.32291,-1.46989 0,-0.46443 -0.20351,-0.85844 -0.50665,-1.12889 -4.5416,-4.25099 -12.7225,-12.10027 -12.7225,-12.10027 z"
       inkscape:connector-curvature="0"
       style="display:inline;fill:#2f3542;fill-opacity:1;stroke-width:1.39447582" />
    <g
       style="display:inline"
       transform="translate(117.45417,-3.732325)"
       id="g982">
      <g
         style="display:inline"
         transform="matrix(0.55121528,0,0,0.55121528,110.41443,44.968534)"
         id="g980">
        <path
           inkscape:connector-curvature="0"
           d="M 22.545443,-0.21672788 H 5.090898 c -3.010909,0 -5.45454505,2.44363698 -5.45454505,5.45454598 V 42.328727 c 0,3.010909 2.44363605,5.454545 5.45454505,5.454545 h 17.454545 c 3.010909,0 5.454545,-2.443636 5.454545,-5.454545 V 5.2378181 c 0,-3.010909 -2.443636,-5.45454598 -5.454545,-5.45454598 z M 13.81817,45.601454 c -1.810909,0 -3.272726,-1.461818 -3.272726,-3.272727 0,-1.81091 1.461817,-3.272728 3.272726,-3.272728 1.810909,0 3.272727,1.461818 3.272727,3.272728 0,1.810909 -1.461818,3.272727 -3.272727,3.272727 z m 9.818182,-8.727273 H 3.999989 V 6.3287271 h 19.636363 z"
           id="path978"
           style="fill:#2f3542;fill-opacity:1;stroke-width:1.09090912" />
      </g>
    </g>
    <path
       style="display:inline;fill:#2f3542;fill-opacity:1;stroke-width:1.39447582"
       inkscape:connector-curvature="0"
       d="m 235.55217,-11.799808 c 0,0 -8.18359,7.8492844 -12.75689,12.10027643 -0.2685,0.270556 -0.4725,0.664401 -0.4725,1.12888997 0,0.812834 0.59135,1.46989 1.32295,1.46989 h 2.6458 V 13.188578 c 0,0.81289 0.59135,1.469946 1.32295,1.469946 h 3.96874 c 0.73155,0 1.3229,-0.658556 1.3229,-1.469946 V 7.3089743 h 5.29165 v 5.8796037 c 0,0.81139 0.59135,1.469946 1.32295,1.469946 h 3.96874 c 0.73155,0 1.3229,-0.657056 1.3229,-1.469946 V 2.8992484 h 2.64584 c 0.73156,0 1.32291,-0.657056 1.32291,-1.46989 0,-0.46443397 -0.20351,-0.85844497 -0.50665,-1.12888997 -4.5416,-4.25099203 -12.7225,-12.10027643 -12.7225,-12.10027643 z"
       id="path984" />
    <path
       id="path986"
       d="m 63.572801,148.84006 v 3.77977 c 0,0 0.0657,1.88988 2.20488,1.88988 2.13919,0 19.88247,0 22.04858,0 2.1661,0 2.20485,-1.88988 2.20485,-1.88988 v -3.77977 c 0,0 -0.0172,-1.88987 -2.20485,-1.88987 -2.18764,0 -20.27328,0 -22.04858,0 -2.23608,0 -2.20488,1.88987 -2.20488,1.88987 z m 0,9.4494 v 3.77978 c 0,0 0.0657,1.88987 2.20488,1.88987 2.13919,0 19.88247,0 22.04858,0 2.1661,0 2.20485,-1.88987 2.20485,-1.88987 v -3.77978 c 0,0 -0.0172,-1.88986 -2.20485,-1.88986 -2.18764,0 -20.27328,0 -22.04858,0 -2.23608,0 -2.20488,1.88986 -2.20488,1.88986 z m 0,9.44941 v 3.77978 c 0,0 0.0657,1.88987 2.20488,1.88987 2.13919,0 19.88247,0 22.04858,0 2.1661,0 2.20485,-1.88987 2.20485,-1.88987 v -3.77978 c 0,0 -0.0172,-1.88987 -2.20485,-1.88987 -2.18764,0 -20.27328,0 -22.04858,0 -2.23608,0 -2.20488,1.88987 -2.20488,1.88987 z m 2.20488,-5.66963 v -3.77978 h 2.20484 v 3.77978 z m 4.4097,0 v -3.77978 h 2.20487 v 3.77978 z m 4.40972,0 v -3.77978 h 2.20487 v 3.77978 z m 4.40972,0 v -3.77978 h 2.20486 v 3.77978 z m 6.61458,-1.88989 v -1.88989 h 2.20486 v 1.88989 z m -19.84372,-7.55952 v -3.77977 h 2.20484 v 3.77977 z m 4.4097,0 v -3.77977 h 2.20487 v 3.77977 z m 4.40972,0 v -3.77977 h 2.20487 v 3.77977 z m 4.40972,0 v -3.77977 h 2.20486 v 3.77977 z m 6.61458,-1.88988 v -1.88989 h 2.20486 v 1.88989 z m -19.84372,20.7887 v -3.77978 h 2.20484 v 3.77978 z m 4.4097,0 v -3.77978 h 2.20487 v 3.77978 z m 4.40972,0 v -3.77978 h 2.20487 v 3.77978 z m 4.40972,0 v -3.77978 h 2.20486 v 3.77978 z m 6.61458,-1.88989 v -1.88989 h 2.20486 v 1.88989 z"
       inkscape:connector-curvature="0"
       style="display:inline;fill:#2f3542;fill-opacity:1;stroke-width:0.03189536" />
    <path
       style="display:inline;fill:#2f3542;fill-opacity:1;stroke-width:0.03189536"
       inkscape:connector-curvature="0"
       d="m 222.3228,201.75673 v 3.77977 c 0,0 0.0657,1.88988 2.20488,1.88988 2.13919,0 19.88247,0 22.04858,0 2.1661,0 2.20485,-1.88988 2.20485,-1.88988 v -3.77977 c 0,0 -0.0172,-1.88987 -2.20485,-1.88987 -2.18764,0 -20.27328,0 -22.04858,0 -2.23608,0 -2.20488,1.88987 -2.20488,1.88987 z m 0,9.4494 v 3.77978 c 0,0 0.0657,1.88987 2.20488,1.88987 2.13919,0 19.88247,0 22.04858,0 2.1661,0 2.20485,-1.88987 2.20485,-1.88987 v -3.77978 c 0,0 -0.0172,-1.88986 -2.20485,-1.88986 -2.18764,0 -20.27328,0 -22.04858,0 -2.23608,0 -2.20488,1.88986 -2.20488,1.88986 z m 0,9.44941 v 3.77978 c 0,0 0.0657,1.88987 2.20488,1.88987 2.13919,0 19.88247,0 22.04858,0 2.1661,0 2.20485,-1.88987 2.20485,-1.88987 v -3.77978 c 0,0 -0.0172,-1.88987 -2.20485,-1.88987 -2.18764,0 -20.27328,0 -22.04858,0 -2.23608,0 -2.20488,1.88987 -2.20488,1.88987 z m 2.20488,-5.66963 v -3.77978 h 2.20484 v 3.77978 z m 4.4097,0 v -3.77978 h 2.20487 v 3.77978 z m 4.40972,0 v -3.77978 h 2.20487 v 3.77978 z m 4.40972,0 v -3.77978 h 2.20486 v 3.77978 z m 6.61458,-1.88989 v -1.88989 h 2.20486 v 1.88989 z m -19.84372,-7.55952 v -3.77977 h 2.20484 v 3.77977 z m 4.4097,0 v -3.77977 h 2.20487 v 3.77977 z m 4.40972,0 v -3.77977 h 2.20487 v 3.77977 z m 4.40972,0 v -3.77977 h 2.20486 v 3.77977 z m 6.61458,-1.88988 v -1.88989 h 2.20486 v 1.88989 z m -19.84372,20.7887 v -3.77978 h 2.20484 v 3.77978 z m 4.4097,0 v -3.77978 h 2.20487 v 3.77978 z m 4.40972,0 v -3.77978 h 2.20487 v 3.77978 z m 4.40972,0 v -3.77978 h 2.20486 v 3.77978 z m 6.61458,-1.88989 v -1.88989 h 2.20486 v 1.88989 z"
       id="path988" />
    <path
       id="path990"
       d="m 23.885501,146.95019 c 0,0 -8.18359,7.84928 -12.75689,12.10027 -0.2685,0.27056 -0.4725,0.66441 -0.4725,1.12889 0,0.81284 0.59135,1.46989 1.32295,1.46989 h 2.6458 v 10.28933 c 0,0.81289 0.59135,1.46995 1.32295,1.46995 h 3.96874 c 0.73155,0 1.3229,-0.65856 1.3229,-1.46995 v -5.8796 h 5.29165 v 5.8796 c 0,0.81139 0.59135,1.46995 1.32295,1.46995 h 3.96874 c 0.73155,0 1.3229,-0.65706 1.3229,-1.46995 v -10.28933 h 2.64584 c 0.73156,0 1.32291,-0.65705 1.32291,-1.46989 0,-0.46443 -0.20351,-0.85844 -0.50665,-1.12889 -4.5416,-4.25099 -12.7225,-12.10027 -12.7225,-12.10027 z"
       inkscape:connector-curvature="0"
       style="display:inline;fill:#2f3542;fill-opacity:1;stroke-width:1.39447582" />
    <g
       style="display:inline"
       transform="translate(126.41039,83.470066)"
       id="g1006">
      <g
         id="g1004"
         transform="matrix(0.29277136,0,0,0.29277136,42.734173,116.22669)"
         style="display:inline;fill:#2f3542;fill-opacity:1">
        <g
           id="g1002"
           style="fill:#2f3542;fill-opacity:1">
          <path
             id="path994"
             d="m 25.986,80.5 2.006,-3.408 c 0.023,0.012 0.043,0.029 0.066,0.041 l 14.979,7.281 v 4.027 c 0,1.387 1.125,2.512 2.514,2.512 1.387,0 2.512,-1.125 2.512,-2.512 v -4.229 l 14.119,-9.031 2.871,4.775 c 0.473,0.783 1.303,1.217 2.156,1.217 0.441,0 0.887,-0.117 1.293,-0.359 1.189,-0.717 1.572,-2.26 0.857,-3.449 L 48.82,43.228 c 2.65,-1.248 4.494,-3.939 4.494,-7.059 0,-4.305 -3.502,-7.809 -7.807,-7.809 -4.303,0 -7.805,3.504 -7.805,7.809 0,3.09 1.807,5.758 4.416,7.022 -4.482,7.618 -20.463,34.761 -20.463,34.761 0,0 -1.725,2.761 0.531,3.861 2.564,1.25 3.8,-1.313 3.8,-1.313 z m 22.077,-28.781 6.5,10.801 -6.5,3.65 z m -5.026,14.9 -7.059,-3.092 7.059,-11.99 z m 5.026,11.629 v -6.316 l 9.092,-5.104 2.436,4.047 z M 45.508,33.385 c 1.533,0 2.781,1.249 2.781,2.783 0,1.534 -1.248,2.781 -2.781,2.781 -1.533,0 -2.779,-1.247 -2.779,-2.781 0,-1.534 1.246,-2.783 2.779,-2.783 z m -14.961,39.369 2.865,-4.865 9.625,4.215 v 6.723 z"
             inkscape:connector-curvature="0"
             style="fill:#2f3542;fill-opacity:1" />
          <path
             id="path996"
             d="m 61.457,22.071 c 0,0 0,0 0.002,0 v 0 c 0.699,0 1.396,-0.291 1.893,-0.859 0.914,-1.045 0.807,-2.632 -0.238,-3.545 -2.146,-1.877 -4.566,-3.359 -7.139,-4.461 -3.307,-1.418 -6.875,-2.189 -10.52,-2.189 0,0 0,0 -0.002,0 h -0.002 c -5.555,0 -10.945,1.744 -15.459,4.938 -0.756,0.533 -1.494,1.098 -2.197,1.711 -1.045,0.914 -1.152,2.5 -0.238,3.545 0.457,0.524 1.084,0.813 1.729,0.854 0.09,0.006 0.18,-0.004 0.271,-0.008 0.068,-0.003 0.137,0.003 0.205,-0.006 0.482,-0.06 0.951,-0.259 1.346,-0.603 0.619,-0.543 1.275,-1.034 1.945,-1.5 3.641,-2.523 7.957,-3.906 12.4,-3.906 2.783,0 5.516,0.552 8.066,1.574 2.273,0.91 4.404,2.191 6.285,3.835 0.477,0.416 1.067,0.62 1.653,0.62 z"
             inkscape:connector-curvature="0"
             style="fill:#2f3542;fill-opacity:1" />
          <path
             id="path998"
             d="M 69.971,9.815 C 63.157,3.86 54.451,0.581 45.455,0.581 c -8.998,0 -17.705,3.279 -24.518,9.233 -1.045,0.913 -1.15,2.501 -0.238,3.545 0.914,1.045 2.502,1.151 3.545,0.238 5.896,-5.153 13.43,-7.991 21.211,-7.991 7.779,0 15.311,2.838 21.209,7.993 0.477,0.416 1.064,0.62 1.652,0.62 0.699,0 1.396,-0.291 1.893,-0.859 0.914,-1.045 0.807,-2.632 -0.238,-3.545 z"
             inkscape:connector-curvature="0"
             style="fill:#2f3542;fill-opacity:1" />
          <path
             id="path1000"
             d="m 33.357,27.151 c 0,0.017 -0.002,0.033 0,0.049 0.061,0.48 0.26,0.95 0.604,1.343 0.914,1.044 2.504,1.148 3.545,0.233 0.234,-0.203 0.477,-0.393 0.723,-0.577 1.488,-1.113 3.199,-1.868 5.004,-2.209 0.02,-0.004 0.039,-0.01 0.059,-0.014 0.037,-0.007 0.074,-0.009 0.111,-0.015 0.674,-0.117 1.359,-0.182 2.051,-0.182 2.918,0.001 5.74,1.064 7.949,2.996 0.119,0.104 0.244,0.195 0.377,0.273 0.395,0.234 0.836,0.35 1.277,0.35 0.699,0 1.395,-0.29 1.893,-0.857 0.914,-1.045 0.807,-2.632 -0.236,-3.545 -0.002,-10e-4 -0.002,-0.002 -0.002,-0.002 v 0 c -0.004,-0.003 -0.006,-0.005 -0.01,-0.008 -3.123,-2.729 -7.117,-4.232 -11.246,-4.232 0,0 0,0 -0.002,0 h -0.002 c -1.035,0 -2.063,0.095 -3.068,0.279 -2.389,0.438 -4.654,1.393 -6.66,2.785 -0.104,0.072 -0.213,0.135 -0.316,0.209 -0.033,0.025 -0.064,0.055 -0.1,0.08 -0.379,0.28 -0.752,0.572 -1.109,0.886 -0.393,0.343 -0.652,0.782 -0.775,1.251 -0.018,0.063 -0.02,0.126 -0.031,0.189 -0.018,0.095 -0.041,0.188 -0.047,0.285 -0.012,0.145 -0.004,0.289 0.011,0.433 z"
             inkscape:connector-curvature="0"
             style="fill:#2f3542;fill-opacity:1" />
        </g>
      </g>
    </g>
    <path
       id="path1008"
       d="m 182.6355,146.95019 c 0,0 -8.18359,7.84928 -12.75689,12.10027 -0.2685,0.27056 -0.4725,0.66441 -0.4725,1.12889 0,0.81284 0.59135,1.46989 1.32295,1.46989 h 2.6458 v 10.28933 c 0,0.81289 0.59135,1.46995 1.32295,1.46995 h 3.96874 c 0.73155,0 1.3229,-0.65856 1.3229,-1.46995 v -5.8796 h 5.29165 v 5.8796 c 0,0.81139 0.59135,1.46995 1.32295,1.46995 h 3.96874 c 0.73155,0 1.3229,-0.65706 1.3229,-1.46995 v -10.28933 h 2.64584 c 0.73156,0 1.32291,-0.65705 1.32291,-1.46989 0,-0.46443 -0.20351,-0.85844 -0.50665,-1.12889 -4.5416,-4.25099 -12.7225,-12.10027 -12.7225,-12.10027 z"
       inkscape:connector-curvature="0"
       style="display:inline;fill:#2f3542;fill-opacity:1;stroke-width:1.39447582" />
    <path
       style="display:inline;fill:#2f3542;fill-opacity:1;stroke-width:1.39447582"
       inkscape:connector-curvature="0"
       d="m 235.55217,94.033528 c 0,0 -8.18359,7.849282 -12.75689,12.100272 -0.2685,0.27056 -0.4725,0.66441 -0.4725,1.12889 0,0.81284 0.59135,1.46989 1.32295,1.46989 h 2.6458 v 10.28933 c 0,0.81289 0.59135,1.46995 1.32295,1.46995 h 3.96874 c 0.73155,0 1.3229,-0.65856 1.3229,-1.46995 v -5.8796 h 5.29165 v 5.8796 c 0,0.81139 0.59135,1.46995 1.32295,1.46995 h 3.96874 c 0.73155,0 1.3229,-0.65706 1.3229,-1.46995 v -10.28933 h 2.64584 c 0.73156,0 1.32291,-0.65705 1.32291,-1.46989 0,-0.46443 -0.20351,-0.85844 -0.50665,-1.12889 -4.5416,-4.25099 -12.7225,-12.100272 -12.7225,-12.100272 z"
       id="path1010" />
    <g
       style="display:inline"
       transform="translate(11.620838,102.10101)"
       id="g1018">
      <g
         style="display:inline"
         transform="matrix(0.55121528,0,0,0.55121528,110.41443,44.968534)"
         id="g1016">
        <path
           inkscape:connector-curvature="0"
           d="M 22.545443,-0.21672788 H 5.090898 c -3.010909,0 -5.45454505,2.44363698 -5.45454505,5.45454598 V 42.328727 c 0,3.010909 2.44363605,5.454545 5.45454505,5.454545 h 17.454545 c 3.010909,0 5.454545,-2.443636 5.454545,-5.454545 V 5.2378181 c 0,-3.010909 -2.443636,-5.45454598 -5.454545,-5.45454598 z M 13.81817,45.601454 c -1.810909,0 -3.272726,-1.461818 -3.272726,-3.272727 0,-1.81091 1.461817,-3.272728 3.272726,-3.272728 1.810909,0 3.272727,1.461818 3.272727,3.272728 0,1.810909 -1.461818,3.272727 -3.272727,3.272727 z m 9.818182,-8.727273 H 3.999989 V 6.3287271 h 19.636363 z"
           id="path1014"
           style="fill:#2f3542;fill-opacity:1;stroke-width:1.09090912" />
      </g>
    </g>
    <path
       style="display:inline;fill:#2f3542;fill-opacity:1;stroke-width:0.03189536"
       inkscape:connector-curvature="0"
       d="m 222.3228,148.84006 v 3.77977 c 0,0 0.0657,1.88988 2.20488,1.88988 2.13919,0 19.88247,0 22.04858,0 2.1661,0 2.20485,-1.88988 2.20485,-1.88988 v -3.77977 c 0,0 -0.0172,-1.88987 -2.20485,-1.88987 -2.18764,0 -20.27328,0 -22.04858,0 -2.23608,0 -2.20488,1.88987 -2.20488,1.88987 z m 0,9.4494 v 3.77978 c 0,0 0.0657,1.88987 2.20488,1.88987 2.13919,0 19.88247,0 22.04858,0 2.1661,0 2.20485,-1.88987 2.20485,-1.88987 v -3.77978 c 0,0 -0.0172,-1.88986 -2.20485,-1.88986 -2.18764,0 -20.27328,0 -22.04858,0 -2.23608,0 -2.20488,1.88986 -2.20488,1.88986 z m 0,9.44941 v 3.77978 c 0,0 0.0657,1.88987 2.20488,1.88987 2.13919,0 19.88247,0 22.04858,0 2.1661,0 2.20485,-1.88987 2.20485,-1.88987 v -3.77978 c 0,0 -0.0172,-1.88987 -2.20485,-1.88987 -2.18764,0 -20.27328,0 -22.04858,0 -2.23608,0 -2.20488,1.88987 -2.20488,1.88987 z m 2.20488,-5.66963 v -3.77978 h 2.20484 v 3.77978 z m 4.4097,0 v -3.77978 h 2.20487 v 3.77978 z m 4.40972,0 v -3.77978 h 2.20487 v 3.77978 z m 4.40972,0 v -3.77978 h 2.20486 v 3.77978 z m 6.61458,-1.88989 v -1.88989 h 2.20486 v 1.88989 z m -19.84372,-7.55952 v -3.77977 h 2.20484 v 3.77977 z m 4.4097,0 v -3.77977 h 2.20487 v 3.77977 z m 4.40972,0 v -3.77977 h 2.20487 v 3.77977 z m 4.40972,0 v -3.77977 h 2.20486 v 3.77977 z m 6.61458,-1.88988 v -1.88989 h 2.20486 v 1.88989 z m -19.84372,20.7887 v -3.77978 h 2.20484 v 3.77978 z m 4.4097,0 v -3.77978 h 2.20487 v 3.77978 z m 4.40972,0 v -3.77978 h 2.20487 v 3.77978 z m 4.40972,0 v -3.77978 h 2.20486 v 3.77978 z m 6.61458,-1.88989 v -1.88989 h 2.20486 v 1.88989 z"
       id="path1020" />
    <path
       id="path1022"
       d="m 129.71883,199.86686 c 0,0 -8.18359,7.84928 -12.75689,12.10027 -0.2685,0.27056 -0.4725,0.66441 -0.4725,1.12889 0,0.81284 0.59135,1.46989 1.32295,1.46989 h 2.6458 v 10.28933 c 0,0.81289 0.59135,1.46995 1.32295,1.46995 h 3.96874 c 0.73155,0 1.3229,-0.65856 1.3229,-1.46995 v -5.8796 h 5.29165 v 5.8796 c 0,0.81139 0.59135,1.46995 1.32295,1.46995 h 3.96874 c 0.73155,0 1.3229,-0.65706 1.3229,-1.46995 v -10.28933 h 2.64584 c 0.73156,0 1.32291,-0.65705 1.32291,-1.46989 0,-0.46443 -0.20351,-0.85844 -0.50665,-1.12889 -4.5416,-4.25099 -12.7225,-12.10027 -12.7225,-12.10027 z"
       inkscape:connector-curvature="0"
       style="display:inline;fill:#2f3542;fill-opacity:1;stroke-width:1.39447582" />
    <g
       style="display:inline"
       id="g1030"
       transform="translate(-94.212496,155.01767)">
      <g
         id="g1028"
         transform="matrix(0.55121528,0,0,0.55121528,110.41443,44.968534)"
         style="display:inline">
        <path
           style="fill:#2f3542;fill-opacity:1;stroke-width:1.09090912"
           id="path1026"
           d="M 22.545443,-0.21672788 H 5.090898 c -3.010909,0 -5.45454505,2.44363698 -5.45454505,5.45454598 V 42.328727 c 0,3.010909 2.44363605,5.454545 5.45454505,5.454545 h 17.454545 c 3.010909,0 5.454545,-2.443636 5.454545,-5.454545 V 5.2378181 c 0,-3.010909 -2.443636,-5.45454598 -5.454545,-5.45454598 z M 13.81817,45.601454 c -1.810909,0 -3.272726,-1.461818 -3.272726,-3.272727 0,-1.81091 1.461817,-3.272728 3.272726,-3.272728 1.810909,0 3.272727,1.461818 3.272727,3.272728 0,1.810909 -1.461818,3.272727 -3.272727,3.272727 z m 9.818182,-8.727273 H 3.999989 V 6.3287271 h 19.636363 z"
           inkscape:connector-curvature="0" />
      </g>
    </g>
  </g>
  <g
     inkscape:label="connections"
     inkscape:groupmode="layer"
     id="layer1"
     style="display:inline"
     transform="translate(-10.656111,11.799809)"
     sodipodi:insensitive="true">
    <path
       style="display:inline;fill:none;stroke:#000000;stroke-width:1.32291663;stroke-linecap:butt;stroke-linejoin:miter;stroke-miterlimit:4;stroke-dasharray:1.32291667, 2.64583333;stroke-dashoffset:0;stroke-opacity:1"
       d="M 39.760278,1.4293577 H 60.926944"
       id="path1041"
       inkscape:connector-curvature="0"
       sodipodi:nodetypes="cc" />
    <path
       sodipodi:nodetypes="cc"
       inkscape:connector-curvature="0"
       id="path1111"
       d="M 92.676948,1.4293577 H 113.84362"
       style="display:inline;fill:none;stroke:#000000;stroke-width:1.32291663;stroke-linecap:butt;stroke-linejoin:miter;stroke-miterlimit:4;stroke-dasharray:1.32291667, 2.64583333;stroke-dashoffset:0;stroke-opacity:1" />
    <path
       style="display:inline;fill:none;stroke:#000000;stroke-width:1.32291663;stroke-linecap:butt;stroke-linejoin:miter;stroke-miterlimit:4;stroke-dasharray:1.32291667, 2.64583333;stroke-dashoffset:0;stroke-opacity:1"
       d="m 145.59364,1.4293577 h 21.16668"
       id="path1113"
       inkscape:connector-curvature="0"
       sodipodi:nodetypes="cc" />
    <path
       sodipodi:nodetypes="cc"
       inkscape:connector-curvature="0"
       id="path1115"
       d="m 198.51034,1.4293577 h 21.16668"
       style="display:inline;fill:none;stroke:#000000;stroke-width:1.32291663;stroke-linecap:butt;stroke-linejoin:miter;stroke-miterlimit:4;stroke-dasharray:1.32291667, 2.64583333;stroke-dashoffset:0;stroke-opacity:1" />
    <path
       sodipodi:nodetypes="cc"
       inkscape:connector-curvature="0"
       id="path1119"
       d="M 39.760278,54.346027 H 60.926944"
       style="display:inline;fill:none;stroke:#000000;stroke-width:1.32291663;stroke-linecap:butt;stroke-linejoin:miter;stroke-miterlimit:4;stroke-dasharray:1.32291667, 2.64583333;stroke-dashoffset:0;stroke-opacity:1" />
    <path
       style="display:inline;fill:none;stroke:#000000;stroke-width:1.32291663;stroke-linecap:butt;stroke-linejoin:miter;stroke-miterlimit:4;stroke-dasharray:1.32291667, 2.64583333;stroke-dashoffset:0;stroke-opacity:1"
       d="M 92.676948,54.346027 H 113.84362"
       id="path1121"
       inkscape:connector-curvature="0"
       sodipodi:nodetypes="cc" />
    <path
       sodipodi:nodetypes="cc"
       inkscape:connector-curvature="0"
       id="path1123"
       d="m 145.59364,54.346027 h 21.16668"
       style="display:inline;fill:none;stroke:#000000;stroke-width:1.32291663;stroke-linecap:butt;stroke-linejoin:miter;stroke-miterlimit:4;stroke-dasharray:1.32291667, 2.64583333;stroke-dashoffset:0;stroke-opacity:1" />
    <path
       style="display:inline;fill:none;stroke:#000000;stroke-width:1.32291663;stroke-linecap:butt;stroke-linejoin:miter;stroke-miterlimit:4;stroke-dasharray:1.32291667, 2.64583333;stroke-dashoffset:0;stroke-opacity:1"
       d="m 198.51034,54.346027 h 21.16668"
       id="path1125"
       inkscape:connector-curvature="0"
       sodipodi:nodetypes="cc" />
    <path
       style="display:inline;fill:none;stroke:#000000;stroke-width:1.32291663;stroke-linecap:butt;stroke-linejoin:miter;stroke-miterlimit:4;stroke-dasharray:1.32291667, 2.64583333;stroke-dashoffset:0;stroke-opacity:1"
       d="M 39.760278,107.2627 H 60.926944"
       id="path1127"
       inkscape:connector-curvature="0"
       sodipodi:nodetypes="cc" />
    <path
       sodipodi:nodetypes="cc"
       inkscape:connector-curvature="0"
       id="path1129"
       d="M 92.676948,107.2627 H 113.84362"
       style="display:inline;fill:none;stroke:#000000;stroke-width:1.32291663;stroke-linecap:butt;stroke-linejoin:miter;stroke-miterlimit:4;stroke-dasharray:1.32291667, 2.64583333;stroke-dashoffset:0;stroke-opacity:1" />
    <path
       style="display:inline;fill:none;stroke:#000000;stroke-width:1.32291663;stroke-linecap:butt;stroke-linejoin:miter;stroke-miterlimit:4;stroke-dasharray:1.32291667, 2.64583333;stroke-dashoffset:0;stroke-opacity:1"
       d="m 145.59364,107.2627 h 21.16668"
       id="path1131"
       inkscape:connector-curvature="0"
       sodipodi:nodetypes="cc" />
    <path
       sodipodi:nodetypes="cc"
       inkscape:connector-curvature="0"
       id="path1133"
       d="m 198.51034,107.2627 h 21.16668"
       style="display:inline;fill:none;stroke:#000000;stroke-width:1.32291663;stroke-linecap:butt;stroke-linejoin:miter;stroke-miterlimit:4;stroke-dasharray:1.32291667, 2.64583333;stroke-dashoffset:0;stroke-opacity:1" />
    <path
       sodipodi:nodetypes="cc"
       inkscape:connector-curvature="0"
       id="path1135"
       d="M 39.760278,160.1794 H 60.926944"
       style="display:inline;fill:none;stroke:#000000;stroke-width:1.32291663;stroke-linecap:butt;stroke-linejoin:miter;stroke-miterlimit:4;stroke-dasharray:1.32291667, 2.64583333;stroke-dashoffset:0;stroke-opacity:1" />
    <path
       style="display:inline;fill:none;stroke:#000000;stroke-width:1.32291663;stroke-linecap:butt;stroke-linejoin:miter;stroke-miterlimit:4;stroke-dasharray:1.32291667, 2.64583333;stroke-dashoffset:0;stroke-opacity:1"
       d="M 92.676948,160.1794 H 113.84362"
       id="path1137"
       inkscape:connector-curvature="0"
       sodipodi:nodetypes="cc" />
    <path
       sodipodi:nodetypes="cc"
       inkscape:connector-curvature="0"
       id="path1139"
       d="m 145.59364,160.1794 h 21.16668"
       style="display:inline;fill:none;stroke:#000000;stroke-width:1.32291663;stroke-linecap:butt;stroke-linejoin:miter;stroke-miterlimit:4;stroke-dasharray:1.32291667, 2.64583333;stroke-dashoffset:0;stroke-opacity:1" />
    <path
       style="display:inline;fill:none;stroke:#000000;stroke-width:1.32291663;stroke-linecap:butt;stroke-linejoin:miter;stroke-miterlimit:4;stroke-dasharray:1.32291667, 2.64583333;stroke-dashoffset:0;stroke-opacity:1"
       d="m 198.51034,160.1794 h 21.16668"
       id="path1141"
       inkscape:connector-curvature="0"
       sodipodi:nodetypes="cc" />
    <path
       style="display:inline;fill:none;stroke:#000000;stroke-width:1.32291663;stroke-linecap:butt;stroke-linejoin:miter;stroke-miterlimit:4;stroke-dasharray:1.32291667, 2.64583333;stroke-dashoffset:0;stroke-opacity:1"
       d="M 39.760278,213.0961 H 60.926944"
       id="path1143"
       inkscape:connector-curvature="0"
       sodipodi:nodetypes="cc" />
    <path
       sodipodi:nodetypes="cc"
       inkscape:connector-curvature="0"
       id="path1145"
       d="M 92.676948,213.0961 H 113.84362"
       style="display:inline;fill:none;stroke:#000000;stroke-width:1.32291663;stroke-linecap:butt;stroke-linejoin:miter;stroke-miterlimit:4;stroke-dasharray:1.32291667, 2.64583333;stroke-dashoffset:0;stroke-opacity:1" />
    <path
       style="display:inline;fill:none;stroke:#000000;stroke-width:1.32291663;stroke-linecap:butt;stroke-linejoin:miter;stroke-miterlimit:4;stroke-dasharray:1.32291667, 2.64583333;stroke-dashoffset:0;stroke-opacity:1"
       d="m 145.59364,213.0961 h 21.16668"
       id="path1147"
       inkscape:connector-curvature="0"
       sodipodi:nodetypes="cc" />
    <path
       sodipodi:nodetypes="cc"
       inkscape:connector-curvature="0"
       id="path1149"
       d="m 198.51034,213.0961 h 21.16668"
       style="display:inline;fill:none;stroke:#000000;stroke-width:1.32291663;stroke-linecap:butt;stroke-linejoin:miter;stroke-miterlimit:4;stroke-dasharray:1.32291667, 2.64583333;stroke-dashoffset:0;stroke-opacity:1" />
    <path
       sodipodi:nodetypes="cc"
       inkscape:connector-curvature="0"
       id="path1151"
       d="M 24.017569,197.78803 V 176.62137"
       style="display:inline;fill:none;stroke:#000000;stroke-width:1.32291663;stroke-linecap:butt;stroke-linejoin:miter;stroke-miterlimit:4;stroke-dasharray:1.32291667, 2.64583333;stroke-dashoffset:0;stroke-opacity:1" />
    <path
       style="display:inline;fill:none;stroke:#000000;stroke-width:1.32291663;stroke-linecap:butt;stroke-linejoin:miter;stroke-miterlimit:4;stroke-dasharray:1.32291667, 2.64583333;stroke-dashoffset:0;stroke-opacity:1"
       d="M 24.017569,144.87136 V 123.70469"
       id="path1153"
       inkscape:connector-curvature="0"
       sodipodi:nodetypes="cc" />
    <path
       sodipodi:nodetypes="cc"
       inkscape:connector-curvature="0"
       id="path1155"
       d="M 24.017569,91.954668 V 70.787988"
       style="display:inline;fill:none;stroke:#000000;stroke-width:1.32291663;stroke-linecap:butt;stroke-linejoin:miter;stroke-miterlimit:4;stroke-dasharray:1.32291667, 2.64583333;stroke-dashoffset:0;stroke-opacity:1" />
    <path
       style="display:inline;fill:none;stroke:#000000;stroke-width:1.32291663;stroke-linecap:butt;stroke-linejoin:miter;stroke-miterlimit:4;stroke-dasharray:1.32291667, 2.64583333;stroke-dashoffset:0;stroke-opacity:1"
       d="M 24.017569,38.471024 V 17.304342"
       id="path1157"
       inkscape:connector-curvature="0"
       sodipodi:nodetypes="cc" />
    <path
       style="display:inline;fill:none;stroke:#000000;stroke-width:1.32291663;stroke-linecap:butt;stroke-linejoin:miter;stroke-miterlimit:4;stroke-dasharray:1.32291667, 2.64583333;stroke-dashoffset:0;stroke-opacity:1"
       d="M 76.934239,197.78803 V 176.62137"
       id="path1161"
       inkscape:connector-curvature="0"
       sodipodi:nodetypes="cc" />
    <path
       sodipodi:nodetypes="cc"
       inkscape:connector-curvature="0"
       id="path1163"
       d="M 76.934239,144.87136 V 123.70469"
       style="display:inline;fill:none;stroke:#000000;stroke-width:1.32291663;stroke-linecap:butt;stroke-linejoin:miter;stroke-miterlimit:4;stroke-dasharray:1.32291667, 2.64583333;stroke-dashoffset:0;stroke-opacity:1" />
    <path
       style="display:inline;fill:none;stroke:#000000;stroke-width:1.32291663;stroke-linecap:butt;stroke-linejoin:miter;stroke-miterlimit:4;stroke-dasharray:1.32291667, 2.64583333;stroke-dashoffset:0;stroke-opacity:1"
       d="M 76.934239,91.954668 V 70.787988"
       id="path1165"
       inkscape:connector-curvature="0"
       sodipodi:nodetypes="cc" />
    <path
       sodipodi:nodetypes="cc"
       inkscape:connector-curvature="0"
       id="path1167"
       d="M 76.934239,38.471024 V 17.304342"
       style="display:inline;fill:none;stroke:#000000;stroke-width:1.32291663;stroke-linecap:butt;stroke-linejoin:miter;stroke-miterlimit:4;stroke-dasharray:1.32291667, 2.64583333;stroke-dashoffset:0;stroke-opacity:1" />
    <path
       sodipodi:nodetypes="cc"
       inkscape:connector-curvature="0"
       id="path1169"
       d="M 129.85092,197.78803 V 176.62137"
       style="display:inline;fill:none;stroke:#000000;stroke-width:1.32291663;stroke-linecap:butt;stroke-linejoin:miter;stroke-miterlimit:4;stroke-dasharray:1.32291667, 2.64583333;stroke-dashoffset:0;stroke-opacity:1" />
    <path
       style="display:inline;fill:none;stroke:#000000;stroke-width:1.32291663;stroke-linecap:butt;stroke-linejoin:miter;stroke-miterlimit:4;stroke-dasharray:1.32291667, 2.64583333;stroke-dashoffset:0;stroke-opacity:1"
       d="M 129.85092,144.87136 V 123.70469"
       id="path1171"
       inkscape:connector-curvature="0"
       sodipodi:nodetypes="cc" />
    <path
       sodipodi:nodetypes="cc"
       inkscape:connector-curvature="0"
       id="path1173"
       d="M 129.85092,91.954668 V 70.787988"
       style="display:inline;fill:none;stroke:#000000;stroke-width:1.32291663;stroke-linecap:butt;stroke-linejoin:miter;stroke-miterlimit:4;stroke-dasharray:1.32291667, 2.64583333;stroke-dashoffset:0;stroke-opacity:1" />
    <path
       style="display:inline;fill:none;stroke:#000000;stroke-width:1.32291663;stroke-linecap:butt;stroke-linejoin:miter;stroke-miterlimit:4;stroke-dasharray:1.32291667, 2.64583333;stroke-dashoffset:0;stroke-opacity:1"
       d="M 129.85092,38.471024 V 17.304342"
       id="path1175"
       inkscape:connector-curvature="0"
       sodipodi:nodetypes="cc" />
    <path
       style="display:inline;fill:none;stroke:#000000;stroke-width:1.32291663;stroke-linecap:butt;stroke-linejoin:miter;stroke-miterlimit:4;stroke-dasharray:1.32291667, 2.64583333;stroke-dashoffset:0;stroke-opacity:1"
       d="M 182.76762,197.78803 V 176.62137"
       id="path1177"
       inkscape:connector-curvature="0"
       sodipodi:nodetypes="cc" />
    <path
       sodipodi:nodetypes="cc"
       inkscape:connector-curvature="0"
       id="path1179"
       d="M 182.76762,144.87136 V 123.70469"
       style="display:inline;fill:none;stroke:#000000;stroke-width:1.32291663;stroke-linecap:butt;stroke-linejoin:miter;stroke-miterlimit:4;stroke-dasharray:1.32291667, 2.64583333;stroke-dashoffset:0;stroke-opacity:1" />
    <path
       style="display:inline;fill:none;stroke:#000000;stroke-width:1.32291663;stroke-linecap:butt;stroke-linejoin:miter;stroke-miterlimit:4;stroke-dasharray:1.32291667, 2.64583333;stroke-dashoffset:0;stroke-opacity:1"
       d="M 182.76762,91.954668 V 70.787988"
       id="path1181"
       inkscape:connector-curvature="0"
       sodipodi:nodetypes="cc" />
    <path
       sodipodi:nodetypes="cc"
       inkscape:connector-curvature="0"
       id="path1183"
       d="M 182.76762,38.471024 V 17.304342"
       style="display:inline;fill:none;stroke:#000000;stroke-width:1.32291663;stroke-linecap:butt;stroke-linejoin:miter;stroke-miterlimit:4;stroke-dasharray:1.32291667, 2.64583333;stroke-dashoffset:0;stroke-opacity:1" />
    <path
       sodipodi:nodetypes="cc"
       inkscape:connector-curvature="0"
       id="path1185"
       d="M 235.68432,197.78803 V 176.62137"
       style="display:inline;fill:none;stroke:#000000;stroke-width:1.32291663;stroke-linecap:butt;stroke-linejoin:miter;stroke-miterlimit:4;stroke-dasharray:1.32291667, 2.64583333;stroke-dashoffset:0;stroke-opacity:1" />
    <path
       style="display:inline;fill:none;stroke:#000000;stroke-width:1.32291663;stroke-linecap:butt;stroke-linejoin:miter;stroke-miterlimit:4;stroke-dasharray:1.32291667, 2.64583333;stroke-dashoffset:0;stroke-opacity:1"
       d="M 235.68432,144.87136 V 123.70469"
       id="path1187"
       inkscape:connector-curvature="0"
       sodipodi:nodetypes="cc" />
    <path
       sodipodi:nodetypes="cc"
       inkscape:connector-curvature="0"
       id="path1189"
       d="M 235.68432,91.954668 V 70.787988"
       style="display:inline;fill:none;stroke:#000000;stroke-width:1.32291663;stroke-linecap:butt;stroke-linejoin:miter;stroke-miterlimit:4;stroke-dasharray:1.32291667, 2.64583333;stroke-dashoffset:0;stroke-opacity:1" />
    <path
       style="display:inline;fill:none;stroke:#000000;stroke-width:1.32291663;stroke-linecap:butt;stroke-linejoin:miter;stroke-miterlimit:4;stroke-dasharray:1.32291667, 2.64583333;stroke-dashoffset:0;stroke-opacity:1"
       d="M 235.68432,38.471024 V 17.304342"
       id="path1191"
       inkscape:connector-curvature="0"
       sodipodi:nodetypes="cc" />
  </g>
  <g
     inkscape:groupmode="layer"
     id="layer3"
     inkscape:label="fade"
     style="display:inline"
     transform="translate(0,73.442772)" />
</svg>
